<!-- PLACEHOLDER — [GANTI] dengan foto asli Ashwagandha -->
<svg xmlns="http://www.w3.org/2000/svg" viewBox="0 0 480 360" width="480" height="360">
  <defs>
    <linearGradient id="bg2" x1="0" y1="0" x2="1" y2="1">
      <stop offset="0" stop-color="#1c1810"/>
      <stop offset="1" stop-color="#0e0c08"/>
    </linearGradient>
    <linearGradient id="root2" x1="0" y1="0" x2="0" y2="1">
      <stop offset="0" stop-color="#e8d8b0"/>
      <stop offset="1" stop-color="#b89a63"/>
    </linearGradient>
  </defs>
  <rect width="480" height="360" fill="url(#bg2)"/>
  <!-- akar bercabang -->
  <g transform="translate(240 150)" stroke="#8a6f3f" stroke-width="2" fill="url(#root2)">
    <path d="M-6 -40 C-4 0 -10 40 -26 95 C-22 50 -18 10 -16 -30 Z"/>
    <path d="M6 -40 C4 0 10 40 26 95 C22 50 18 10 16 -30 Z"/>
    <path d="M0 -42 C2 10 0 60 0 120 C-2 60 -2 10 0 -42 Z"/>
  </g>
  <!-- buah merah (cherry) -->
  <g transform="translate(240 95)">
    <circle cx="-30" cy="0" r="13" fill="#c0392b"/>
    <circle cx="0" cy="-8" r="13" fill="#d4453a"/>
    <circle cx="30" cy="0" r="13" fill="#c0392b"/>
    <g fill="none" stroke="#4f9a47" stroke-width="2">
      <path d="M-30 -10 C-34 -28 -20 -34 -12 -34"/>
      <path d="M0 -18 C-4 -36 10 -42 18 -42"/>
      <path d="M30 -10 C26 -28 40 -34 48 -34"/>
    </g>
  </g>
  <text x="240" y="330" text-anchor="middle" font-family="Inter, sans-serif" font-size="14" fill="#7a6f58">[ Foto: Ashwagandha ]</text>
</svg>
