<!-- PLACEHOLDER — [GANTI] dengan foto asli Ginseng Merah Korea -->
<svg xmlns="http://www.w3.org/2000/svg" viewBox="0 0 480 360" width="480" height="360">
  <defs>
    <linearGradient id="bg" x1="0" y1="0" x2="1" y2="1">
      <stop offset="0" stop-color="#1c1810"/>
      <stop offset="1" stop-color="#0e0c08"/>
    </linearGradient>
    <linearGradient id="root" x1="0" y1="0" x2="0" y2="1">
      <stop offset="0" stop-color="#d98a52"/>
      <stop offset="1" stop-color="#9c4a23"/>
    </linearGradient>
  </defs>
  <rect width="480" height="360" fill="url(#bg)"/>
  <g transform="translate(240 175)" stroke="#7a3517" stroke-width="2" fill="url(#root)">
    <ellipse cx="0" cy="-20" rx="42" ry="52"/>
    <path d="M-12 25 C-30 70 -50 95 -42 130 C-36 110 -22 95 -14 70 Z"/>
    <path d="M12 25 C30 70 52 95 44 130 C38 110 24 95 16 70 Z"/>
    <path d="M0 30 C-4 80 -2 110 0 135 C2 110 4 80 0 30 Z"/>
  </g>
  <g transform="translate(240 95)" stroke="#3f7d3a" stroke-width="2" fill="#4f9a47">
    <path d="M0 0 C-10 -30 -34 -38 -44 -34 C-34 -14 -14 -4 0 0Z"/>
    <path d="M0 0 C10 -30 34 -38 44 -34 C34 -14 14 -4 0 0Z"/>
  </g>
  <text x="240" y="330" text-anchor="middle" font-family="Inter, sans-serif" font-size="14" fill="#7a6f58">[ Foto: Ginseng Merah Korea ]</text>
</svg>
